<svg fill="none" height="153" viewBox="0 0 528 153" width="528" xmlns="http://www.w3.org/2000/svg"><g fill="#fff"><path d="m287.956 90.8672c0 4.6484-1.527 8.6019-4.58 11.8608-3.122 3.304-7.337 4.956-12.647 4.956-5.309 0-9.524-1.652-12.646-4.956-3.076-3.2589-4.614-7.0757-4.614-11.4507l6.494-3.0761h.342v2.8027c0 2.78.82 5.1156 2.461 7.0068 2.028 2.3473 4.682 3.5203 7.963 3.5203 3.259 0 5.914-1.173 7.964-3.5203 1.618-1.8457 2.427-4.2041 2.427-7.0752 0-2.7115-.661-4.8421-1.982-6.3916-1.823-2.1419-4.626-3.2128-8.409-3.2128-4.147 0-7.736-1.3672-10.766-4.1016-2.279-2.0508-3.418-5.0244-3.418-8.9209 0-4.5801 1.413-8.0208 4.238-10.3223 2.689-2.1875 6.004-3.2812 9.946-3.2812 3.943 0 7.258 1.0937 9.947 3.2812 2.825 2.3015 4.238 5.4574 4.238 9.4678l-6.494 3.0762h-.342v-2.7344c0-2.5977-.74-4.5345-2.222-5.8105-1.435-1.2533-3.144-1.8799-5.127-1.8799-2.21 0-3.987.695-5.332 2.0849-1.344 1.39-2.016 3.2585-2.016 5.6055 0 2.2559.513 3.9534 1.538 5.0928 1.367 1.5267 3.304 2.29 5.81 2.29 5.515 0 9.73 1.2988 12.647 3.8965 3.053 2.7116 4.58 6.6422 4.58 11.792zm12.339 16.1328v-49.9023l3.623-1.709h21.67v.3418l-2.769 5.8789h-15.688v16.4746h18.457v.3418l-2.769 5.8789h-15.688v16.4743h24.165v.342l-2.769 5.879zm39.58 1.367v-36.5721c0-4.9219 1.538-8.9664 4.614-12.1338 3.236-3.304 7.451-4.956 12.647-4.956 5.127 0 9.342 1.652 12.646 4.956 3.076 3.0534 4.614 7.098 4.614 12.1338v33.4961l-6.494 3.076h-.341v-36.5721c0-3.0534-.821-5.5257-2.461-7.417-2.028-2.347-4.683-3.5205-7.964-3.5205-3.282 0-5.936 1.1735-7.964 3.5205-1.641 1.8913-2.461 4.3636-2.461 7.417v33.4961l-6.494 3.076zm55.029-24.951h9.742c2.985 0 5.639-1.1735 7.963-3.5205 1.641-1.6634 2.461-4.1357 2.461-7.417 0-3.0534-.82-5.5257-2.461-7.417-2.028-2.347-4.682-3.5205-7.963-3.5205h-9.742zm-6.836 24.951v-51.2693l3.623-1.709h12.955c5.195 0 9.41 1.652 12.646 4.956 3.076 3.1446 4.614 7.1892 4.614 12.1338 0 4.9675-1.538 9.0121-4.614 12.1338-3.258 3.304-7.474 4.9561-12.646 4.9561h-9.742v15.7226l-6.494 3.076zm44.092 0v-36.5721c0-4.9219 1.538-8.9664 4.614-12.1338 3.236-3.304 7.452-4.956 12.647-4.956 5.104 0 9.32 1.652 12.646 4.956 3.077 3.0534 4.615 7.098 4.615 12.1338v33.4961l-6.494 3.076h-.342v-24.0623h-20.85v20.9863l-6.494 3.076zm6.836-30.283h20.85v-6.2891c0-3.0534-.821-5.5257-2.461-7.417-2.028-2.347-4.683-3.5205-7.964-3.5205s-5.936 1.1735-7.964 3.5205c-1.641 1.8913-2.461 4.3636-2.461 7.417zm41.358 28.916v-49.9023l3.623-1.709h12.954c5.195 0 9.41 1.652 12.646 4.956 3.076 3.1218 4.614 7.1664 4.614 12.1338v17.4317c0 4.9446-1.538 8.9892-4.614 12.1338-3.236 3.304-7.451 4.956-12.646 4.956zm6.835-6.152h9.742c3.281 0 5.936-1.1738 7.964-3.5209 1.64-1.8912 2.46-4.3636 2.46-7.4169v-17.4317c0-3.0534-.82-5.5257-2.46-7.417-2.028-2.347-4.683-3.5205-7.964-3.5205h-9.742z"/><path d="m95.8008 92.1585c-5.1199-6.3015-14.5327-22.6852-11.2244-37.8086 3.3082-15.1235 23.4336-42.5347 33.0826-54.3499 10.043 12.7998 30.601 41.5895 32.492 54.3499 2.363 15.9505-4.136 34.8548-15.36 47.8511-8.737 10.117-14.178 14.179-15.36 15.36 5.317-5.907 16.66-19.6131 19.495-27.1748 3.545-9.4522 7.089-20.6766 3.545-33.0825-2.836-9.9248-17.723-31.3103-24.812-40.7624-4.923 4.726-15.38 19.9706-21.2674 29.5379-4.7261 7.6799-4.9887 17.1321-4.7261 21.8581.5269 9.4847 2.56 20.6766 4.1353 24.2212z"/><path d="m138.723 92.1585c5.12-6.3015 14.533-22.6852 11.225-37.8086-3.308-15.1235-23.434-42.5347-33.083-54.3499-10.043 12.7998-30.6012 41.5895-32.4916 54.3499-2.363 15.9505 4.1353 34.8548 15.3598 47.8511 8.7368 10.117 14.1778 14.179 15.3598 15.36-5.317-5.907-16.6595-19.6131-19.4952-27.1748-3.5445-9.4522-7.0891-20.6766-3.5445-33.0825 2.8356-9.9248 17.7227-31.3103 24.8117-40.7624 4.923 4.726 15.38 19.9706 21.268 29.5379 4.726 7.6799 4.988 17.1321 4.726 21.8581-.527 9.4847-2.56 20.6766-4.136 24.2212z"/><path d="m145.327 42.3859c3.544-2.9538 14.178-7.0891 25.403-10.4848 11.006-3.3297 26.781-3.9384 33.082-4.7261.197 7.6799-1.181 25.8445-3.544 35.2967-2.284 9.1355-7.483 22.4488-10.043 28.3564l-8.271-2.8048c2.954-5.7107 8.861-20.8255 10.634-33.0826 1.759-12.1703.393-16.8871.59-17.2809-3.938-.1969-14.414 1.3304-22.448 3.6935-8.035 2.363-19.102 6.8922-23.631 8.8614z"/><path d="m89.1973 42.3859c-3.5446-2.9538-14.1783-7.0891-25.4027-10.4848-11.0064-3.3297-26.7811-3.9384-33.0825-4.7261-.1969 7.6799 1.1815 25.8445 3.5445 35.2967 2.2839 9.1355 7.483 22.4488 10.043 28.3564l8.2706-2.8048c-2.9538-5.7107-8.8614-20.8255-10.6337-33.0826-1.7597-12.1703-.3938-16.8871-.5907-17.2809 3.9384-.1969 14.4145 1.3304 22.4488 3.6935 8.0343 2.363 19.1012 6.8922 23.6304 8.8614z"/><path d="m141.993 94.3563c6.484-4.8868 23.2-13.696 38.192-9.8386 14.993 3.8575 41.652 24.9683 53.108 35.0423-13.158 9.569-42.678 29.065-55.498 30.489-16.026 1.779-34.681-5.404-47.26-17.095-9.792-9.1-13.652-14.685-14.79-15.909 5.71 5.529 18.993 17.363 26.446 20.473 9.317 3.887 20.405 7.838 32.932 4.748 10.021-2.472 31.935-16.569 41.64-23.309-4.544-5.092-19.397-16.098-28.743-22.3304-7.503-5.0029-16.939-5.6099-21.672-5.5198-9.497.1807-20.756 1.8044-24.355 3.2495z"/><path d="m92.5314 94.3563c-6.4839-4.8868-23.1999-13.696-38.1927-9.8386-14.9928 3.8575-41.652 24.9683-53.10757 35.0423 13.15747 9.569 42.67747 29.065 55.49837 30.489 16.026 1.779 34.6808-5.404 47.2595-17.095 9.792-9.1 13.652-14.685 14.79-15.909-5.71 5.529-18.9931 17.363-26.4464 20.473-9.3166 3.887-20.4044 7.838-32.9313 4.748-10.0215-2.472-31.9356-16.569-41.6399-23.309 4.5434-5.092 19.3966-16.098 28.7429-22.3304 7.5025-5.0029 16.9388-5.6099 21.6713-5.5198 9.4976.1807 20.7562 1.8044 24.3558 3.2495z"/></g></svg>